# xmcd CD database file
# Copyright (C) 1993-1998 Ti Kan
#
# Track frame offsets:
#  150
#  21587
#  25692
#  37817
#  48915
#  57942
#  65947
#  78102
#  83265
#  99210
#  108762
#  122065
#  133100
#  151540
#  155815
#  165934
#  181680
#  196360
#  216475
#  251959
#  266837
#  285895
#  302200
#
# Disc length: 4422 seconds
#
# Revision: 1
# Processed by: cddbd v1.4b41PL1 Copyright (c) Steve Scherf et al.
# Submitted via: CDWizzard Release:4.35
#
DISCID=2b114417
DTITLE=Nacha Guevara - EN VIVO
DYEAR=1900
DGENRE=
TTITLE0=Presentacion
TTITLE1=Sueldo
TTITLE2=La Balada del empleado nuevo
TTITLE3=Amor de tarde
TTITLE4=Yo soy la Secretaria
TTITLE5=Dactilografo
TTITLE6=Cuando te jubiles
TTITLE7=Guarderia
TTITLE8=Aqui no hay cielo
TTITLE9=Presentacion
TTITLE10=Tu quebranto
TTITLE11=Vidalita, por las dudas
TTITLE12=Vamos juntos
TTITLE13=Oda a la pacificacion
TTITLE14=Oda a la mordaza
TTITLE15=De que se rie?
TTITLE16=Presentacion
TTITLE17=Te quiero
TTITLE18=A la izquierda del roble
TTITLE19=Todavia
TTITLE20=Hombre preso que mira a su hijo
TTITLE21=El triunfo de los muchachos
TTITLE22=Un padrenuestro latinoamericano
EXTD=
EXTT0=
EXTT1=
EXTT2=
EXTT3=
EXTT4=
EXTT5=
EXTT6=
EXTT7=
EXTT8=
EXTT9=
EXTT10=
EXTT11=
EXTT12=
EXTT13=
EXTT14=
EXTT15=
EXTT16=
EXTT17=
EXTT18=
EXTT19=
EXTT20=
EXTT21=
EXTT22=
PLAYORDER=
